<?xml version="1.0" encoding="utf-8"?>
<!-- Generator: Adobe Illustrator 27.0.0, SVG Export Plug-In . SVG Version: 6.00 Build 0)  -->
<svg version="1.2" baseProfile="tiny" id="Layer_1" xmlns="http://www.w3.org/2000/svg" xmlns:xlink="http://www.w3.org/1999/xlink"
	 x="0px" y="0px" viewBox="0 0 200 50" overflow="visible" xml:space="preserve">
<g>
	<g>
		<path fill="#C6C0C4" d="M21.88,10.02c-0.97-0.2-1.97-0.3-3-0.3c-8.18,0-14.84,6.66-14.84,14.84S10.7,39.4,18.88,39.4
			c7.75,0,14.12-5.97,14.78-13.55c-0.93-0.11-1.87-0.22-2.8-0.32c-0.5,6.17-5.68,11.05-11.98,11.05c-6.63,0-12.02-5.39-12.02-12.02
			s5.39-12.02,12.02-12.02c0.83,0,1.64,0.08,2.42,0.24"/>
		<path fill="#C6C0C4" d="M75.21,39.39c-8,0-14.5-6.66-14.5-14.84s6.51-14.84,14.5-14.84s14.5,6.66,14.5,14.84
			S83.2,39.39,75.21,39.39z M75.21,12.54c-6.44,0-11.68,5.39-11.68,12.02s5.24,12.02,11.68,12.02s11.68-5.39,11.68-12.02
			S81.65,12.54,75.21,12.54z"/>
		<polygon fill="#C6C0C4" points="54.99,38.89 40.99,38.89 40.99,9.7 43.81,9.7 43.81,36.07 54.99,36.07 		"/>
		<path fill="#C6C0C4" d="M154.66,18c-2.37-4.85-7.28-8.19-12.96-8.23c-0.03,0-0.06,0-0.09,0c-0.02,0-0.03,0-0.05,0
			c-0.39,0-0.8-0.01-1.24-0.01c-2.16-0.01-3.23-0.01-5.34,0l-1.41,0.01v7.45h2.83v-4.64c1.65-0.01,2.22,0,3.89,0.01
			c0.02,0,0.05,0,0.07,0c0.41,0,0.81,0.01,1.19,0.01c0.05,0,0.09,0,0.14,0c4.54,0.04,8.47,2.72,10.39,6.6
			c0.8,1.61,1.25,3.43,1.25,5.36c0,6.06-4.45,11.08-10.19,11.86c-0.51,0.07-1.02,0.11-1.54,0.11c-2.56,0-4.94-0.84-6.87-2.27
			c0,0-1.13,2.68-1.12,2.67c0.04,0.02,0.07,0.04,0.11,0.07c2.27,1.49,4.98,2.37,7.89,2.37c0.64,0,1.26-0.05,1.88-0.13
			c7.15-0.94,12.69-7.16,12.69-14.67C156.18,22.21,155.63,19.98,154.66,18z"/>
		<rect x="163.47" y="18.54" fill="#C6C0C4" width="0.75" height="20.74"/>
		<polygon fill="#C6C0C4" points="171.9,39.45 171.23,39.13 185.18,9.43 192.97,25.35 192.3,25.67 185.19,11.15 		"/>
		<circle fill="#C6C0C4" cx="163.84" cy="12.55" r="2.91"/>
		<circle fill="#C6C0C4" cx="194.38" cy="36.36" r="2.91"/>
		<path fill="#C6C0C4" d="M123.3,9.71v6.13v8.07v0.65c0,0.63-0.03,1.26-0.12,1.88c-0.88,5.69-5.72,10.05-11.54,10.05
			c-5.99,0-10.93-4.62-11.6-10.54c-0.05-0.42-0.06-0.85-0.06-1.27v-0.85v-7.99V9.73h-2.82v14.03c0,0,0.01,1.25,0.02,1.79
			c0,0.13,0.02,0.4,0.03,0.49c0.72,7.44,6.92,13.28,14.43,13.28c7.61,0,13.87-5.99,14.46-13.57c0.01-0.11,0.02-0.5,0.02-0.5v-1.39
			V9.71H123.3z"/>
	</g>
</g>
</svg>
